# xmcd CD database file
#
# Track frame offsets:
#	150
#	13725
#	34844
#	48174
#	64298
#	81351
#	94582
#	107532
#	120115
#	132659
#	145299
#	161084
#	175900
#	194254
#	204809
#	219459
#	235590
#	256599
#
# Disc length: 3734 seconds
#
# Revision: 0
# Processed by: cddbd v1.4PL0 Copyright (c) Steve Scherf et al.
# Submitted via: CdAid 2001.05.15.01
#
DISCID=ee0e9412
DTITLE=Various Artist - Rhytm and Blues CD2
DYEAR=1900
DGENRE=
TTITLE0=Joe Turner: Shake, Rattle And Roll
TTITLE1=Electric Flag: I Was Robbed Last Night
TTITLE2=Gordon Lightfoot: Long Way Back Home
TTITLE3=Linda Ronstadt: Better Walk The Line
TTITLE4=Boz Scaggs: Jungle Blues
TTITLE5=Eric Clapton: Out On The Watercoast
TTITLE6=Jimmy Reed: Let's Get Together
TTITLE7=Rod Stewart: Why Does It Go On
TTITLE8=Ray Charles: Goin Down Slow
TTITLE9=Louis Jourdan: Choo Choo Boogie
TTITLE10=Eddie Wilson: In The Midnight Creeper
TTITLE11=Pee Wee crayton: Texas Hop
TTITLE12=Charles brown: Driftin Blues
TTITLE13=Charles Brown: Tell Mama
TTITLE14=Muddy Waters: Baby Please Don't Go
TTITLE15=Peter and Mick Green: Camel's Eye Blues
TTITLE16=Jessie Winchester: Payday
TTITLE17=Johnny Watson: Johnny G. Is Back
EXTD=
EXTT0=
EXTT1=
EXTT2=
EXTT3=
EXTT4=
EXTT5=
EXTT6=
EXTT7=
EXTT8=
EXTT9=
EXTT10=
EXTT11=
EXTT12=
EXTT13=
EXTT14=
EXTT15=
EXTT16=
EXTT17=
PLAYORDER=
